<svg width="24" height="24" viewBox="0 0 24 24" fill="none" xmlns="http://www.w3.org/2000/svg">
<path d="M12 17C11.8011 17 11.6103 16.921 11.4697 16.7803C11.329 16.6397 11.25 16.4489 11.25 16.25V0.75C11.25 0.551088 11.329 0.360322 11.4697 0.21967C11.6103 0.0790176 11.8011 0 12 0C12.1989 0 12.3897 0.0790176 12.5303 0.21967C12.671 0.360322 12.75 0.551088 12.75 0.75V16.25C12.75 16.4489 12.671 16.6397 12.5303 16.7803C12.3897 16.921 12.1989 17 12 17Z" fill="#3B82F6"/>
<path d="M12 17.0002C11.8012 17 11.6105 16.9208 11.47 16.7802L7.47003 12.7802C7.33755 12.638 7.26543 12.4499 7.26885 12.2556C7.27228 12.0613 7.35099 11.8759 7.48841 11.7385C7.62582 11.6011 7.81121 11.5224 8.00551 11.519C8.19981 11.5156 8.38785 11.5877 8.53003 11.7202L12 15.1902L15.47 11.7202C15.5387 11.6465 15.6215 11.5874 15.7135 11.5464C15.8055 11.5054 15.9048 11.4833 16.0055 11.4816C16.1062 11.4798 16.2062 11.4983 16.2996 11.536C16.393 11.5738 16.4778 11.6299 16.5491 11.7011C16.6203 11.7723 16.6764 11.8572 16.7142 11.9506C16.7519 12.0439 16.7704 12.144 16.7686 12.2447C16.7668 12.3454 16.7448 12.4447 16.7038 12.5367C16.6628 12.6287 16.6037 12.7115 16.53 12.7802L12.53 16.7802C12.3895 16.9208 12.1989 17 12 17.0002Z" fill="#3B82F6"/>
<path d="M21.25 24H2.75C2.02065 24 1.32118 23.7103 0.805456 23.1945C0.289731 22.6788 0 21.9793 0 21.25L0 16.75C0 16.5511 0.0790176 16.3603 0.21967 16.2197C0.360322 16.079 0.551088 16 0.75 16C0.948912 16 1.13968 16.079 1.28033 16.2197C1.42098 16.3603 1.5 16.5511 1.5 16.75V21.25C1.5 21.5815 1.6317 21.8995 1.86612 22.1339C2.10054 22.3683 2.41848 22.5 2.75 22.5H21.25C21.5815 22.5 21.8995 22.3683 22.1339 22.1339C22.3683 21.8995 22.5 21.5815 22.5 21.25V16.75C22.5 16.5511 22.579 16.3603 22.7197 16.2197C22.8603 16.079 23.0511 16 23.25 16C23.4489 16 23.6397 16.079 23.7803 16.2197C23.921 16.3603 24 16.5511 24 16.75V21.25C24 21.9793 23.7103 22.6788 23.1945 23.1945C22.6788 23.7103 21.9793 24 21.25 24Z" fill="#3B82F6"/>
</svg>
